<svg xmlns="http://www.w3.org/2000/svg" xmlns:xlink="http://www.w3.org/1999/xlink" width="140" zoomAndPan="magnify" viewBox="0 0 104.88 38.999999" height="52" preserveAspectRatio="xMidYMid meet" version="1.0"><defs><g/></defs><g fill="#000000" fill-opacity="1"><g transform="translate(1.738106, 22.709608)"><g><path d="M 18.453125 -14.625 C 18.453125 -13.507812 18.085938 -12.34375 17.359375 -11.125 C 16.640625 -9.90625 15.640625 -8.84375 14.359375 -7.9375 C 13.085938 -7.03125 11.769531 -6.460938 10.40625 -6.234375 C 9.625 -4.660156 9.0625 -3.554688 8.71875 -2.921875 L 8.3125 -2.265625 C 10.851562 -1.640625 12.957031 -0.6875 14.625 0.59375 C 15.46875 1.25 16.039062 2.050781 16.34375 3 C 16.5 3.488281 16.578125 3.90625 16.578125 4.25 C 16.578125 4.601562 16.507812 4.894531 16.375 5.125 C 16.238281 5.363281 16.078125 5.523438 15.890625 5.609375 C 15.710938 5.703125 15.582031 5.75 15.5 5.75 C 15.425781 5.75 15.390625 5.71875 15.390625 5.65625 C 15.390625 5.59375 15.460938 5.40625 15.609375 5.09375 C 15.765625 4.78125 15.84375 4.410156 15.84375 3.984375 C 15.84375 3.554688 15.75 3.085938 15.5625 2.578125 C 15.382812 2.066406 15.050781 1.59375 14.5625 1.15625 C 14.082031 0.726562 13.40625 0.328125 12.53125 -0.046875 C 11.664062 -0.421875 10.914062 -0.6875 10.28125 -0.84375 C 9.644531 -1.007812 8.796875 -1.195312 7.734375 -1.40625 C 6.640625 0.125 5.503906 1.171875 4.328125 1.734375 C 3.617188 2.078125 2.988281 2.25 2.4375 2.25 C 1.894531 2.25 1.414062 2.140625 1 1.921875 C 0.269531 1.566406 -0.09375 1.019531 -0.09375 0.28125 C -0.09375 -0.445312 0.382812 -1.085938 1.34375 -1.640625 C 2.4375 -2.273438 3.910156 -2.59375 5.765625 -2.59375 C 6.429688 -2.59375 7.035156 -2.539062 7.578125 -2.4375 C 8.160156 -3.34375 8.835938 -4.582031 9.609375 -6.15625 C 9.523438 -6.15625 9.453125 -6.15625 9.390625 -6.15625 C 8.578125 -6.15625 7.820312 -6.289062 7.125 -6.5625 C 6.4375 -6.832031 5.890625 -7.195312 5.484375 -7.65625 C 4.941406 -8.257812 4.671875 -8.941406 4.671875 -9.703125 C 4.671875 -10.097656 4.769531 -10.523438 4.96875 -10.984375 C 5.164062 -11.453125 5.609375 -11.921875 6.296875 -12.390625 C 6.984375 -12.867188 7.851562 -13.226562 8.90625 -13.46875 C 9.070312 -13.507812 9.210938 -13.53125 9.328125 -13.53125 C 9.441406 -13.53125 9.507812 -13.5 9.53125 -13.4375 C 9.5625 -13.375 9.515625 -13.316406 9.390625 -13.265625 C 9.265625 -13.210938 9.117188 -13.171875 8.953125 -13.140625 C 8.398438 -13.078125 7.882812 -12.894531 7.40625 -12.59375 C 6.582031 -12.0625 6.007812 -11.25 5.6875 -10.15625 C 5.613281 -9.90625 5.578125 -9.660156 5.578125 -9.421875 C 5.578125 -9.179688 5.617188 -8.894531 5.703125 -8.5625 C 5.796875 -8.226562 5.988281 -7.882812 6.28125 -7.53125 C 6.582031 -7.175781 6.984375 -6.925781 7.484375 -6.78125 C 7.992188 -6.644531 8.4375 -6.578125 8.8125 -6.578125 C 9.195312 -6.578125 9.550781 -6.597656 9.875 -6.640625 L 11.515625 -10.765625 C 12.640625 -13.660156 13.984375 -15.441406 15.546875 -16.109375 C 15.960938 -16.273438 16.363281 -16.359375 16.75 -16.359375 C 17.144531 -16.359375 17.519531 -16.234375 17.875 -15.984375 C 18.226562 -15.734375 18.414062 -15.429688 18.4375 -15.078125 C 18.445312 -14.921875 18.453125 -14.769531 18.453125 -14.625 Z M 17.65625 -14.609375 C 17.65625 -15.097656 17.425781 -15.34375 16.96875 -15.34375 C 16.320312 -15.34375 15.53125 -14.769531 14.59375 -13.625 C 13.851562 -12.71875 13.144531 -11.617188 12.46875 -10.328125 C 11.800781 -9.035156 11.207031 -7.84375 10.6875 -6.75 C 12.46875 -7.15625 14.070312 -8.132812 15.5 -9.6875 C 16.9375 -11.25 17.65625 -12.890625 17.65625 -14.609375 Z M 6.984375 -1.515625 C 6.359375 -1.660156 5.707031 -1.734375 5.03125 -1.734375 C 4.363281 -1.734375 3.679688 -1.632812 2.984375 -1.4375 C 1.503906 -1.050781 0.632812 -0.507812 0.375 0.1875 C 0.320312 0.320312 0.296875 0.445312 0.296875 0.5625 C 0.296875 0.894531 0.476562 1.164062 0.84375 1.375 C 1.21875 1.582031 1.625 1.6875 2.0625 1.6875 C 2.65625 1.6875 3.304688 1.519531 4.015625 1.1875 C 5.085938 0.675781 6.078125 -0.222656 6.984375 -1.515625 Z M 6.984375 -1.515625 "/></g></g></g><g fill="#000000" fill-opacity="1"><g transform="translate(15.449664, 22.709608)"><g><path d="M 0.421875 -1.109375 C 0.421875 -1.660156 0.660156 -2.332031 1.140625 -3.125 C 0.929688 -3.125 0.875 -3.222656 0.96875 -3.421875 L 1.3125 -4.09375 C 1.75 -4.925781 2.109375 -5.632812 2.390625 -6.21875 C 2.515625 -6.488281 2.765625 -6.625 3.140625 -6.625 L 4.3125 -6.625 C 3.851562 -6.289062 3.390625 -5.644531 2.921875 -4.6875 C 2.453125 -3.726562 2.085938 -2.972656 1.828125 -2.421875 C 1.566406 -1.878906 1.4375 -1.46875 1.4375 -1.1875 C 1.4375 -0.90625 1.484375 -0.707031 1.578125 -0.59375 C 1.679688 -0.476562 1.816406 -0.421875 1.984375 -0.421875 C 2.222656 -0.421875 2.5625 -0.675781 3 -1.1875 C 3.675781 -1.988281 4.632812 -3.664062 5.875 -6.21875 C 6.007812 -6.488281 6.257812 -6.625 6.625 -6.625 L 7.65625 -6.625 C 7.375 -6.40625 7.148438 -6.179688 6.984375 -5.953125 C 6.828125 -5.722656 6.609375 -5.3125 6.328125 -4.71875 C 5.554688 -3.175781 5.128906 -2.15625 5.046875 -1.65625 C 5.003906 -1.476562 4.984375 -1.3125 4.984375 -1.15625 C 4.984375 -0.738281 5.125 -0.519531 5.40625 -0.5 C 6.101562 -0.5 6.957031 -1.570312 7.96875 -3.71875 C 8.039062 -3.894531 8.113281 -3.960938 8.1875 -3.921875 C 8.269531 -3.890625 8.3125 -3.835938 8.3125 -3.765625 C 8.3125 -3.703125 8.253906 -3.554688 8.140625 -3.328125 C 8.023438 -3.097656 7.910156 -2.875 7.796875 -2.65625 C 7.691406 -2.4375 7.523438 -2.132812 7.296875 -1.75 C 7.078125 -1.375 6.875 -1.078125 6.6875 -0.859375 C 6.175781 -0.296875 5.679688 -0.015625 5.203125 -0.015625 C 4.722656 -0.015625 4.394531 -0.226562 4.21875 -0.65625 C 4.132812 -0.84375 4.09375 -1.082031 4.09375 -1.375 C 4.09375 -1.675781 4.160156 -2.046875 4.296875 -2.484375 C 3.359375 -0.835938 2.488281 -0.015625 1.6875 -0.015625 C 1 -0.015625 0.597656 -0.304688 0.484375 -0.890625 C 0.441406 -0.953125 0.421875 -1.023438 0.421875 -1.109375 Z M 0.421875 -1.109375 "/></g></g></g><g fill="#000000" fill-opacity="1"><g transform="translate(22.32469, 22.709608)"><g><path d="M -2.03125 5.96875 C -2.582031 5.96875 -3 5.800781 -3.28125 5.46875 C -3.570312 5.132812 -3.71875 4.789062 -3.71875 4.4375 C -3.71875 4.09375 -3.609375 3.757812 -3.390625 3.4375 C -3.179688 3.125 -2.921875 2.847656 -2.609375 2.609375 C -2.296875 2.367188 -1.988281 2.164062 -1.6875 2 C -1.394531 1.84375 -0.984375 1.664062 -0.453125 1.46875 C 0.078125 1.269531 0.488281 1.125 0.78125 1.03125 C 1.082031 0.9375 1.546875 0.789062 2.171875 0.59375 C 2.796875 0.40625 3.210938 0.28125 3.421875 0.21875 C 3.648438 -0.53125 3.765625 -1.097656 3.765625 -1.484375 C 3.765625 -2.148438 3.582031 -2.484375 3.21875 -2.484375 C 3.164062 -2.484375 3.113281 -2.476562 3.0625 -2.46875 C 2.445312 -2.144531 2.078125 -2.03125 1.953125 -2.125 C 1.890625 -2.164062 1.863281 -2.222656 1.875 -2.296875 C 1.894531 -2.378906 1.957031 -2.4375 2.0625 -2.46875 C 2.925781 -2.738281 3.644531 -3.300781 4.21875 -4.15625 C 4.382812 -4.414062 4.46875 -4.65625 4.46875 -4.875 C 4.46875 -5.09375 4.375 -5.300781 4.1875 -5.5 C 4.007812 -5.707031 3.816406 -5.8125 3.609375 -5.8125 C 2.972656 -5.8125 2.441406 -5.445312 2.015625 -4.71875 C 1.660156 -4.113281 1.320312 -3.472656 1 -2.796875 C 0.914062 -2.609375 0.828125 -2.539062 0.734375 -2.59375 C 0.648438 -2.65625 0.660156 -2.789062 0.765625 -3 C 1.441406 -4.332031 1.820312 -5.066406 1.90625 -5.203125 C 2.476562 -6.253906 3.265625 -6.78125 4.265625 -6.78125 C 4.710938 -6.78125 5.054688 -6.613281 5.296875 -6.28125 C 5.421875 -6.09375 5.484375 -5.820312 5.484375 -5.46875 C 5.484375 -5.125 5.3125 -4.695312 4.96875 -4.1875 C 4.632812 -3.675781 4.175781 -3.25 3.59375 -2.90625 C 3.601562 -2.90625 3.617188 -2.90625 3.640625 -2.90625 C 4.472656 -2.90625 4.898438 -2.488281 4.921875 -1.65625 C 4.921875 -1.164062 4.851562 -0.695312 4.71875 -0.25 C 5.6875 -0.4375 6.671875 -1.585938 7.671875 -3.703125 C 7.722656 -3.816406 7.789062 -3.878906 7.875 -3.890625 C 7.957031 -3.929688 8 -3.890625 8 -3.765625 C 8 -3.628906 7.832031 -3.257812 7.5 -2.65625 C 7.164062 -2.050781 6.851562 -1.550781 6.5625 -1.15625 C 6.019531 -0.382812 5.363281 0.078125 4.59375 0.234375 C 4.09375 1.609375 3.351562 2.785156 2.375 3.765625 C 1.394531 4.742188 0.222656 5.429688 -1.140625 5.828125 C -1.460938 5.921875 -1.757812 5.96875 -2.03125 5.96875 Z M -2.921875 4.0625 C -3.003906 4.300781 -3.046875 4.550781 -3.046875 4.8125 C -3.046875 5.070312 -2.945312 5.257812 -2.75 5.375 C -2.5625 5.488281 -2.382812 5.546875 -2.21875 5.546875 C -1.601562 5.546875 -0.925781 5.3125 -0.1875 4.84375 C 0.550781 4.375 1.226562 3.78125 1.84375 3.0625 C 2.457031 2.34375 2.925781 1.550781 3.25 0.6875 C 2.976562 0.78125 2.550781 0.910156 1.96875 1.078125 C 1.394531 1.242188 0.941406 1.378906 0.609375 1.484375 C -0.285156 1.765625 -1 2.0625 -1.53125 2.375 C -2.21875 2.769531 -2.679688 3.332031 -2.921875 4.0625 Z M -2.921875 4.0625 "/></g></g></g><g fill="#000000" fill-opacity="1"><g transform="translate(28.891591, 22.709608)"><g><path d="M 6.953125 -5.21875 C 6.722656 -4.988281 6.394531 -4.460938 5.96875 -3.640625 C 5.539062 -2.828125 5.285156 -2.21875 5.203125 -1.8125 C 5.117188 -1.414062 5.078125 -1.09375 5.078125 -0.84375 C 5.078125 -0.59375 5.175781 -0.46875 5.375 -0.46875 C 5.613281 -0.46875 5.914062 -0.691406 6.28125 -1.140625 C 6.800781 -1.796875 7.316406 -2.648438 7.828125 -3.703125 C 7.878906 -3.816406 7.941406 -3.878906 8.015625 -3.890625 C 8.109375 -3.929688 8.15625 -3.890625 8.15625 -3.765625 C 8.15625 -3.703125 8.140625 -3.628906 8.109375 -3.546875 C 6.921875 -1.160156 5.925781 0.03125 5.125 0.03125 C 4.75 0.03125 4.445312 -0.144531 4.21875 -0.5 C 4.101562 -0.695312 4.046875 -0.953125 4.046875 -1.265625 C 4.046875 -1.585938 4.109375 -1.976562 4.234375 -2.4375 C 3.203125 -0.789062 2.316406 0.03125 1.578125 0.03125 C 1.367188 0.03125 1.179688 -0.03125 1.015625 -0.15625 C 0.628906 -0.425781 0.4375 -0.890625 0.4375 -1.546875 C 0.4375 -2.796875 0.984375 -4.070312 2.078125 -5.375 C 2.691406 -6.09375 3.445312 -6.5625 4.34375 -6.78125 C 4.59375 -6.84375 4.828125 -6.875 5.046875 -6.875 C 5.628906 -6.875 6.128906 -6.664062 6.546875 -6.25 C 6.671875 -6.113281 6.707031 -5.976562 6.65625 -5.84375 C 6.601562 -5.71875 6.492188 -5.671875 6.328125 -5.703125 C 6.191406 -6.160156 5.882812 -6.390625 5.40625 -6.390625 C 4.851562 -6.390625 4.175781 -5.953125 3.375 -5.078125 C 2.90625 -4.566406 2.472656 -3.960938 2.078125 -3.265625 C 1.578125 -2.429688 1.328125 -1.765625 1.328125 -1.265625 C 1.328125 -0.765625 1.488281 -0.515625 1.8125 -0.515625 C 2.582031 -0.515625 3.585938 -1.695312 4.828125 -4.0625 C 5.078125 -4.539062 5.285156 -4.863281 5.453125 -5.03125 C 5.617188 -5.207031 5.828125 -5.296875 6.078125 -5.296875 C 6.128906 -5.296875 6.257812 -5.273438 6.46875 -5.234375 C 6.6875 -5.191406 6.847656 -5.1875 6.953125 -5.21875 Z M 6.953125 -5.21875 "/></g></g></g><g fill="#000000" fill-opacity="1"><g transform="translate(35.631815, 22.709608)"><g><path d="M 6.90625 -6.3125 C 5.332031 -3.539062 4.546875 -1.734375 4.546875 -0.890625 C 4.546875 -0.554688 4.664062 -0.390625 4.90625 -0.390625 C 5.5625 -0.390625 6.441406 -1.5 7.546875 -3.71875 C 7.617188 -3.894531 7.691406 -3.960938 7.765625 -3.921875 C 7.847656 -3.890625 7.890625 -3.835938 7.890625 -3.765625 C 7.890625 -3.703125 7.863281 -3.628906 7.8125 -3.546875 C 7.132812 -2.171875 6.5625 -1.222656 6.09375 -0.703125 C 5.625 -0.179688 5.15625 0.078125 4.6875 0.078125 C 4.21875 0.078125 3.863281 -0.101562 3.625 -0.46875 C 3.488281 -0.632812 3.421875 -0.859375 3.421875 -1.140625 C 3.421875 -1.429688 3.484375 -1.78125 3.609375 -2.1875 C 3.742188 -2.601562 4.097656 -3.273438 4.671875 -4.203125 C 4.816406 -4.429688 4.890625 -4.613281 4.890625 -4.75 C 4.890625 -4.882812 4.78125 -4.953125 4.5625 -4.953125 C 4.34375 -4.953125 3.925781 -4.660156 3.3125 -4.078125 C 2.382812 -3.234375 1.492188 -1.960938 0.640625 -0.265625 C 0.554688 -0.140625 0.46875 -0.0625 0.375 -0.03125 C 0.28125 0 0.09375 0.0195312 -0.1875 0.03125 C -0.46875 0.0507812 -0.65625 0.0859375 -0.75 0.140625 C -0.539062 -0.273438 -0.132812 -1.117188 0.46875 -2.390625 C 1.539062 -4.628906 2.242188 -5.910156 2.578125 -6.234375 C 2.734375 -6.390625 2.945312 -6.46875 3.21875 -6.46875 C 3.269531 -6.46875 3.398438 -6.445312 3.609375 -6.40625 C 3.816406 -6.375 3.972656 -6.367188 4.078125 -6.390625 C 3.609375 -6.128906 2.832031 -4.921875 1.75 -2.765625 C 2.351562 -3.515625 2.898438 -4.109375 3.390625 -4.546875 C 3.890625 -4.992188 4.484375 -5.40625 5.171875 -5.78125 C 5.867188 -6.164062 6.378906 -6.359375 6.703125 -6.359375 C 6.773438 -6.359375 6.84375 -6.34375 6.90625 -6.3125 Z M 6.90625 -6.3125 "/></g></g></g><g fill="#000000" fill-opacity="1"><g transform="translate(42.083184, 22.709608)"><g><path d="M -0.234375 6.078125 C -1.441406 6.078125 -2.046875 5.582031 -2.046875 4.59375 C -2.046875 3.78125 -1.484375 3.046875 -0.359375 2.390625 C 0.585938 1.835938 1.796875 1.316406 3.265625 0.828125 C 3.953125 0.609375 4.445312 0.4375 4.75 0.3125 C 5.082031 -0.664062 5.25 -1.734375 5.25 -2.890625 C 5.25 -3.117188 5.238281 -3.289062 5.21875 -3.40625 C 4.851562 -2.675781 4.359375 -1.925781 3.734375 -1.15625 C 2.992188 -0.226562 2.253906 0.128906 1.515625 -0.078125 C 0.847656 -0.359375 0.515625 -0.910156 0.515625 -1.734375 C 0.515625 -2.835938 1.066406 -4.050781 2.171875 -5.375 C 2.773438 -6.09375 3.484375 -6.546875 4.296875 -6.734375 C 4.515625 -6.796875 4.734375 -6.828125 4.953125 -6.828125 C 5.523438 -6.828125 6.085938 -6.632812 6.640625 -6.25 C 6.847656 -6.082031 6.953125 -5.941406 6.953125 -5.828125 C 6.953125 -5.710938 6.910156 -5.597656 6.828125 -5.484375 C 6.753906 -5.378906 6.675781 -5.367188 6.59375 -5.453125 C 6.507812 -5.535156 6.453125 -5.617188 6.421875 -5.703125 C 6.253906 -6.171875 5.988281 -6.40625 5.625 -6.40625 C 4.9375 -6.40625 4.171875 -5.929688 3.328125 -4.984375 C 2.859375 -4.441406 2.445312 -3.863281 2.09375 -3.25 C 1.675781 -2.476562 1.46875 -1.882812 1.46875 -1.46875 C 1.46875 -1.050781 1.59375 -0.773438 1.84375 -0.640625 C 1.9375 -0.597656 2.03125 -0.578125 2.125 -0.578125 C 2.414062 -0.578125 2.78125 -0.78125 3.21875 -1.1875 C 3.664062 -1.59375 4.078125 -2.101562 4.453125 -2.71875 C 4.835938 -3.34375 5.078125 -3.828125 5.171875 -4.171875 C 5.273438 -4.523438 5.398438 -4.742188 5.546875 -4.828125 C 5.703125 -4.921875 5.867188 -4.972656 6.046875 -4.984375 C 6.222656 -4.992188 6.34375 -5.023438 6.40625 -5.078125 C 6.507812 -4.503906 6.5625 -3.828125 6.5625 -3.046875 C 6.5625 -2.273438 6.425781 -1.394531 6.15625 -0.40625 C 6.75 -0.832031 7.171875 -1.210938 7.421875 -1.546875 C 7.671875 -1.878906 7.867188 -2.175781 8.015625 -2.4375 C 8.160156 -2.707031 8.289062 -2.972656 8.40625 -3.234375 C 8.519531 -3.503906 8.597656 -3.675781 8.640625 -3.75 C 8.679688 -3.832031 8.742188 -3.878906 8.828125 -3.890625 C 8.921875 -3.910156 8.96875 -3.867188 8.96875 -3.765625 C 8.96875 -3.703125 8.945312 -3.628906 8.90625 -3.546875 C 8.34375 -2.378906 7.875 -1.535156 7.5 -1.015625 C 7.125 -0.492188 6.609375 -0.078125 5.953125 0.234375 C 5.640625 1.109375 5.191406 1.972656 4.609375 2.828125 C 4.023438 3.691406 3.289062 4.445312 2.40625 5.09375 C 1.519531 5.75 0.640625 6.078125 -0.234375 6.078125 Z M -1.640625 4.96875 C -1.640625 5.457031 -1.320312 5.703125 -0.6875 5.703125 C -0.320312 5.703125 0.09375 5.59375 0.5625 5.375 C 1.03125 5.15625 1.421875 4.929688 1.734375 4.703125 C 2.253906 4.273438 2.832031 3.644531 3.46875 2.8125 C 3.9375 2.144531 4.300781 1.492188 4.5625 0.859375 L 3.890625 1.09375 C 1.890625 1.789062 0.476562 2.40625 -0.34375 2.9375 C -0.945312 3.34375 -1.347656 3.851562 -1.546875 4.46875 C -1.609375 4.65625 -1.640625 4.820312 -1.640625 4.96875 Z M -1.640625 4.96875 "/></g></g></g><g fill="#000000" fill-opacity="1"><g transform="translate(49.63225, 22.709608)"><g><path d="M 1.9375 -2.96875 C 1.757812 -2.53125 1.671875 -2.039062 1.671875 -1.5 C 1.671875 -1.144531 1.75 -0.859375 1.90625 -0.640625 C 2.070312 -0.429688 2.300781 -0.328125 2.59375 -0.328125 C 3.757812 -0.328125 4.820312 -1.425781 5.78125 -3.625 C 5.863281 -3.820312 5.972656 -3.910156 6.109375 -3.890625 C 6.148438 -3.878906 6.171875 -3.847656 6.171875 -3.796875 C 6.171875 -3.742188 6.023438 -3.40625 5.734375 -2.78125 C 5.453125 -2.15625 5.164062 -1.648438 4.875 -1.265625 C 4.21875 -0.367188 3.40625 0.078125 2.4375 0.078125 C 1.925781 0.078125 1.488281 -0.0859375 1.125 -0.421875 C 0.769531 -0.753906 0.59375 -1.207031 0.59375 -1.78125 C 0.59375 -2.363281 0.726562 -2.976562 1 -3.625 C 1.28125 -4.269531 1.65625 -4.875 2.125 -5.4375 C 2.601562 -6 3.148438 -6.40625 3.765625 -6.65625 C 4.066406 -6.789062 4.351562 -6.859375 4.625 -6.859375 C 4.894531 -6.859375 5.144531 -6.78125 5.375 -6.625 C 5.59375 -6.445312 5.703125 -6.25 5.703125 -6.03125 C 5.703125 -5.257812 5.238281 -4.519531 4.3125 -3.8125 C 4.03125 -3.59375 3.628906 -3.394531 3.109375 -3.21875 C 2.597656 -3.050781 2.207031 -2.96875 1.9375 -2.96875 Z M 5.171875 -6.046875 C 5.171875 -6.296875 5.070312 -6.421875 4.875 -6.421875 C 4.507812 -6.421875 3.960938 -5.976562 3.234375 -5.09375 C 2.796875 -4.5625 2.410156 -3.960938 2.078125 -3.296875 C 2.296875 -3.296875 2.613281 -3.367188 3.03125 -3.515625 C 3.445312 -3.671875 3.8125 -3.878906 4.125 -4.140625 C 4.820312 -4.742188 5.171875 -5.378906 5.171875 -6.046875 Z M 5.171875 -6.046875 "/></g></g></g><g fill="#000000" fill-opacity="1"><g transform="translate(54.369675, 22.709608)"><g><path d="M 2.15625 -3.71875 C 2.144531 -3.664062 2.085938 -3.488281 1.984375 -3.1875 C 1.878906 -2.882812 1.789062 -2.59375 1.71875 -2.3125 C 1.644531 -2.039062 1.609375 -1.765625 1.609375 -1.484375 C 1.609375 -1.210938 1.671875 -0.957031 1.796875 -0.71875 C 1.929688 -0.476562 2.140625 -0.359375 2.421875 -0.359375 C 2.890625 -0.359375 3.335938 -0.671875 3.765625 -1.296875 C 4.203125 -1.921875 4.664062 -2.710938 5.15625 -3.671875 C 5.257812 -3.859375 5.359375 -3.929688 5.453125 -3.890625 C 5.515625 -3.835938 5.523438 -3.769531 5.484375 -3.6875 C 5.441406 -3.601562 5.359375 -3.421875 5.234375 -3.140625 C 5.117188 -2.867188 5.03125 -2.675781 4.96875 -2.5625 C 4.914062 -2.457031 4.816406 -2.265625 4.671875 -1.984375 C 4.523438 -1.710938 4.394531 -1.507812 4.28125 -1.375 C 4.175781 -1.238281 4.03125 -1.0625 3.84375 -0.84375 C 3.65625 -0.632812 3.476562 -0.484375 3.3125 -0.390625 C 2.863281 -0.109375 2.4375 0.03125 2.03125 0.03125 C 1.632812 0.03125 1.328125 -0.0507812 1.109375 -0.21875 C 0.898438 -0.394531 0.769531 -0.582031 0.71875 -0.78125 C 0.675781 -0.976562 0.65625 -1.15625 0.65625 -1.3125 C 0.65625 -1.46875 0.660156 -1.664062 0.671875 -1.90625 C 0.710938 -2.3125 0.789062 -2.707031 0.90625 -3.09375 C 1.03125 -3.476562 1.097656 -3.695312 1.109375 -3.75 C 1.410156 -4.8125 1.832031 -5.972656 2.375 -7.234375 C 2.925781 -8.492188 3.390625 -9.441406 3.765625 -10.078125 C 4.140625 -10.710938 4.4375 -11.144531 4.65625 -11.375 C 5.09375 -11.832031 5.523438 -12.0625 5.953125 -12.0625 C 6.242188 -12.0625 6.441406 -11.851562 6.546875 -11.4375 C 6.554688 -11.351562 6.5625 -11.253906 6.5625 -11.140625 C 6.5625 -10.703125 6.410156 -10.148438 6.109375 -9.484375 C 5.003906 -7.035156 3.6875 -5.113281 2.15625 -3.71875 Z M 2.3125 -4.328125 C 2.96875 -4.992188 3.613281 -5.832031 4.25 -6.84375 C 4.894531 -7.863281 5.367188 -8.726562 5.671875 -9.4375 C 5.972656 -10.15625 6.125 -10.640625 6.125 -10.890625 C 6.125 -11.148438 6.078125 -11.28125 5.984375 -11.28125 C 5.859375 -11.28125 5.613281 -11.023438 5.25 -10.515625 C 4.894531 -10.015625 4.410156 -9.101562 3.796875 -7.78125 C 3.191406 -6.46875 2.695312 -5.316406 2.3125 -4.328125 Z M 2.3125 -4.328125 "/></g></g></g><g fill="#000000" fill-opacity="1"><g transform="translate(58.452333, 22.709608)"><g><path d="M 6.953125 -5.21875 C 6.722656 -4.988281 6.394531 -4.460938 5.96875 -3.640625 C 5.539062 -2.828125 5.285156 -2.21875 5.203125 -1.8125 C 5.117188 -1.414062 5.078125 -1.09375 5.078125 -0.84375 C 5.078125 -0.59375 5.175781 -0.46875 5.375 -0.46875 C 5.613281 -0.46875 5.914062 -0.691406 6.28125 -1.140625 C 6.800781 -1.796875 7.316406 -2.648438 7.828125 -3.703125 C 7.878906 -3.816406 7.941406 -3.878906 8.015625 -3.890625 C 8.109375 -3.929688 8.15625 -3.890625 8.15625 -3.765625 C 8.15625 -3.703125 8.140625 -3.628906 8.109375 -3.546875 C 6.921875 -1.160156 5.925781 0.03125 5.125 0.03125 C 4.75 0.03125 4.445312 -0.144531 4.21875 -0.5 C 4.101562 -0.695312 4.046875 -0.953125 4.046875 -1.265625 C 4.046875 -1.585938 4.109375 -1.976562 4.234375 -2.4375 C 3.203125 -0.789062 2.316406 0.03125 1.578125 0.03125 C 1.367188 0.03125 1.179688 -0.03125 1.015625 -0.15625 C 0.628906 -0.425781 0.4375 -0.890625 0.4375 -1.546875 C 0.4375 -2.796875 0.984375 -4.070312 2.078125 -5.375 C 2.691406 -6.09375 3.445312 -6.5625 4.34375 -6.78125 C 4.59375 -6.84375 4.828125 -6.875 5.046875 -6.875 C 5.628906 -6.875 6.128906 -6.664062 6.546875 -6.25 C 6.671875 -6.113281 6.707031 -5.976562 6.65625 -5.84375 C 6.601562 -5.71875 6.492188 -5.671875 6.328125 -5.703125 C 6.191406 -6.160156 5.882812 -6.390625 5.40625 -6.390625 C 4.851562 -6.390625 4.175781 -5.953125 3.375 -5.078125 C 2.90625 -4.566406 2.472656 -3.960938 2.078125 -3.265625 C 1.578125 -2.429688 1.328125 -1.765625 1.328125 -1.265625 C 1.328125 -0.765625 1.488281 -0.515625 1.8125 -0.515625 C 2.582031 -0.515625 3.585938 -1.695312 4.828125 -4.0625 C 5.078125 -4.539062 5.285156 -4.863281 5.453125 -5.03125 C 5.617188 -5.207031 5.828125 -5.296875 6.078125 -5.296875 C 6.128906 -5.296875 6.257812 -5.273438 6.46875 -5.234375 C 6.6875 -5.191406 6.847656 -5.1875 6.953125 -5.21875 Z M 6.953125 -5.21875 "/></g></g></g><g fill="#000000" fill-opacity="1"><g transform="translate(65.192556, 22.709608)"><g/></g></g><g fill="#000000" fill-opacity="1"><g transform="translate(70.180315, 22.709608)"><g><path d="M 18.578125 -13.578125 C 19.929688 -12.765625 20.609375 -11.785156 20.609375 -10.640625 C 20.609375 -9.742188 20.109375 -8.78125 19.109375 -7.75 C 18.535156 -7.15625 17.851562 -6.640625 17.0625 -6.203125 C 16.269531 -5.765625 15.488281 -5.445312 14.71875 -5.25 C 13.382812 -4.9375 12.179688 -4.78125 11.109375 -4.78125 C 10.867188 -4.78125 10.632812 -4.785156 10.40625 -4.796875 C 9.46875 -3.421875 8.503906 -2.253906 7.515625 -1.296875 C 6.066406 0.0664062 4.472656 0.75 2.734375 0.75 C 1.066406 0.75 0.0390625 0.296875 -0.34375 -0.609375 C -0.4375 -0.828125 -0.484375 -1.082031 -0.484375 -1.375 C -0.484375 -1.664062 -0.335938 -1.976562 -0.046875 -2.3125 C 0.421875 -2.832031 1.070312 -3.09375 1.90625 -3.09375 C 2.4375 -3.09375 3 -3 3.59375 -2.8125 C 3.8125 -2.726562 3.890625 -2.644531 3.828125 -2.5625 C 3.773438 -2.507812 3.609375 -2.535156 3.328125 -2.640625 C 3.046875 -2.742188 2.695312 -2.796875 2.28125 -2.796875 C 1.863281 -2.796875 1.492188 -2.632812 1.171875 -2.3125 C 0.859375 -2 0.703125 -1.664062 0.703125 -1.3125 C 0.703125 -1.164062 0.726562 -1.023438 0.78125 -0.890625 C 0.988281 -0.191406 1.570312 0.15625 2.53125 0.15625 C 3.96875 0.15625 5.378906 -0.507812 6.765625 -1.84375 C 7.753906 -2.8125 8.867188 -4.546875 10.109375 -7.046875 C 10.578125 -7.984375 11.164062 -9.023438 11.875 -10.171875 C 12.582031 -11.316406 13.300781 -12.300781 14.03125 -13.125 C 14.125 -13.21875 14.238281 -13.332031 14.375 -13.46875 C 14.644531 -13.78125 14.867188 -14.023438 15.046875 -14.203125 C 14.117188 -14.335938 13.128906 -14.40625 12.078125 -14.40625 C 11.023438 -14.40625 10.03125 -14.316406 9.09375 -14.140625 C 8.164062 -13.960938 7.351562 -13.753906 6.65625 -13.515625 C 5.96875 -13.285156 5.265625 -12.976562 4.546875 -12.59375 C 3.835938 -12.21875 3.238281 -11.742188 2.75 -11.171875 C 2.101562 -10.429688 1.78125 -9.664062 1.78125 -8.875 C 1.78125 -8.382812 1.957031 -7.925781 2.3125 -7.5 C 2.675781 -7.050781 3.148438 -6.828125 3.734375 -6.828125 C 4.316406 -6.828125 4.878906 -7.050781 5.421875 -7.5 C 5.972656 -7.957031 6.363281 -8.507812 6.59375 -9.15625 C 6.613281 -9.25 6.644531 -9.3125 6.6875 -9.34375 C 6.726562 -9.375 6.769531 -9.367188 6.8125 -9.328125 C 6.851562 -9.296875 6.875 -9.234375 6.875 -9.140625 C 6.851562 -8.304688 6.523438 -7.648438 5.890625 -7.171875 C 5.253906 -6.691406 4.550781 -6.453125 3.78125 -6.453125 C 2.914062 -6.453125 2.207031 -6.707031 1.65625 -7.21875 C 1.101562 -7.726562 0.828125 -8.390625 0.828125 -9.203125 C 0.828125 -9.941406 1.023438 -10.609375 1.421875 -11.203125 C 1.816406 -11.804688 2.289062 -12.289062 2.84375 -12.65625 C 3.394531 -13.03125 4.03125 -13.367188 4.75 -13.671875 C 5.96875 -14.160156 7.25 -14.503906 8.59375 -14.703125 C 9.9375 -14.898438 11.1875 -15 12.34375 -15 C 13.507812 -15 14.582031 -14.894531 15.5625 -14.6875 C 16.03125 -15.050781 16.4375 -15.296875 16.78125 -15.421875 C 17.125 -15.546875 17.316406 -15.609375 17.359375 -15.609375 C 17.410156 -15.609375 17.441406 -15.601562 17.453125 -15.59375 C 17.535156 -15.59375 17.550781 -15.550781 17.5 -15.46875 C 17.457031 -15.382812 17.3125 -15.257812 17.0625 -15.09375 C 16.8125 -14.925781 16.570312 -14.726562 16.34375 -14.5 C 17.164062 -14.28125 17.910156 -13.972656 18.578125 -13.578125 Z M 10.953125 -5.203125 C 11.890625 -5.203125 12.90625 -5.363281 14 -5.6875 C 15.09375 -6.007812 16.066406 -6.488281 16.921875 -7.125 C 18.554688 -8.363281 19.375 -9.644531 19.375 -10.96875 C 19.375 -12.46875 18.238281 -13.488281 15.96875 -14.03125 C 15.25 -13.03125 14.316406 -11.507812 13.171875 -9.46875 C 12.035156 -7.425781 11.207031 -6.003906 10.6875 -5.203125 C 10.769531 -5.203125 10.859375 -5.203125 10.953125 -5.203125 Z M 10.953125 -5.203125 "/></g></g></g><g fill="#000000" fill-opacity="1"><g transform="translate(87.319738, 22.709608)"><g><path d="M 6.953125 -5.21875 C 6.722656 -4.988281 6.394531 -4.460938 5.96875 -3.640625 C 5.539062 -2.828125 5.285156 -2.21875 5.203125 -1.8125 C 5.117188 -1.414062 5.078125 -1.09375 5.078125 -0.84375 C 5.078125 -0.59375 5.175781 -0.46875 5.375 -0.46875 C 5.613281 -0.46875 5.914062 -0.691406 6.28125 -1.140625 C 6.800781 -1.796875 7.316406 -2.648438 7.828125 -3.703125 C 7.878906 -3.816406 7.941406 -3.878906 8.015625 -3.890625 C 8.109375 -3.929688 8.15625 -3.890625 8.15625 -3.765625 C 8.15625 -3.703125 8.140625 -3.628906 8.109375 -3.546875 C 6.921875 -1.160156 5.925781 0.03125 5.125 0.03125 C 4.75 0.03125 4.445312 -0.144531 4.21875 -0.5 C 4.101562 -0.695312 4.046875 -0.953125 4.046875 -1.265625 C 4.046875 -1.585938 4.109375 -1.976562 4.234375 -2.4375 C 3.203125 -0.789062 2.316406 0.03125 1.578125 0.03125 C 1.367188 0.03125 1.179688 -0.03125 1.015625 -0.15625 C 0.628906 -0.425781 0.4375 -0.890625 0.4375 -1.546875 C 0.4375 -2.796875 0.984375 -4.070312 2.078125 -5.375 C 2.691406 -6.09375 3.445312 -6.5625 4.34375 -6.78125 C 4.59375 -6.84375 4.828125 -6.875 5.046875 -6.875 C 5.628906 -6.875 6.128906 -6.664062 6.546875 -6.25 C 6.671875 -6.113281 6.707031 -5.976562 6.65625 -5.84375 C 6.601562 -5.71875 6.492188 -5.671875 6.328125 -5.703125 C 6.191406 -6.160156 5.882812 -6.390625 5.40625 -6.390625 C 4.851562 -6.390625 4.175781 -5.953125 3.375 -5.078125 C 2.90625 -4.566406 2.472656 -3.960938 2.078125 -3.265625 C 1.578125 -2.429688 1.328125 -1.765625 1.328125 -1.265625 C 1.328125 -0.765625 1.488281 -0.515625 1.8125 -0.515625 C 2.582031 -0.515625 3.585938 -1.695312 4.828125 -4.0625 C 5.078125 -4.539062 5.285156 -4.863281 5.453125 -5.03125 C 5.617188 -5.207031 5.828125 -5.296875 6.078125 -5.296875 C 6.128906 -5.296875 6.257812 -5.273438 6.46875 -5.234375 C 6.6875 -5.191406 6.847656 -5.1875 6.953125 -5.21875 Z M 6.953125 -5.21875 "/></g></g></g><g fill="#000000" fill-opacity="1"><g transform="translate(94.059961, 22.709608)"><g><path d="M -2.03125 5.96875 C -2.582031 5.96875 -3 5.800781 -3.28125 5.46875 C -3.570312 5.132812 -3.71875 4.789062 -3.71875 4.4375 C -3.71875 4.09375 -3.609375 3.757812 -3.390625 3.4375 C -3.179688 3.125 -2.921875 2.847656 -2.609375 2.609375 C -2.296875 2.367188 -1.988281 2.164062 -1.6875 2 C -1.394531 1.84375 -0.984375 1.664062 -0.453125 1.46875 C 0.078125 1.269531 0.488281 1.125 0.78125 1.03125 C 1.082031 0.9375 1.546875 0.789062 2.171875 0.59375 C 2.796875 0.40625 3.210938 0.28125 3.421875 0.21875 C 3.648438 -0.53125 3.765625 -1.097656 3.765625 -1.484375 C 3.765625 -2.148438 3.582031 -2.484375 3.21875 -2.484375 C 3.164062 -2.484375 3.113281 -2.476562 3.0625 -2.46875 C 2.445312 -2.144531 2.078125 -2.03125 1.953125 -2.125 C 1.890625 -2.164062 1.863281 -2.222656 1.875 -2.296875 C 1.894531 -2.378906 1.957031 -2.4375 2.0625 -2.46875 C 2.925781 -2.738281 3.644531 -3.300781 4.21875 -4.15625 C 4.382812 -4.414062 4.46875 -4.65625 4.46875 -4.875 C 4.46875 -5.09375 4.375 -5.300781 4.1875 -5.5 C 4.007812 -5.707031 3.816406 -5.8125 3.609375 -5.8125 C 2.972656 -5.8125 2.441406 -5.445312 2.015625 -4.71875 C 1.660156 -4.113281 1.320312 -3.472656 1 -2.796875 C 0.914062 -2.609375 0.828125 -2.539062 0.734375 -2.59375 C 0.648438 -2.65625 0.660156 -2.789062 0.765625 -3 C 1.441406 -4.332031 1.820312 -5.066406 1.90625 -5.203125 C 2.476562 -6.253906 3.265625 -6.78125 4.265625 -6.78125 C 4.710938 -6.78125 5.054688 -6.613281 5.296875 -6.28125 C 5.421875 -6.09375 5.484375 -5.820312 5.484375 -5.46875 C 5.484375 -5.125 5.3125 -4.695312 4.96875 -4.1875 C 4.632812 -3.675781 4.175781 -3.25 3.59375 -2.90625 C 3.601562 -2.90625 3.617188 -2.90625 3.640625 -2.90625 C 4.472656 -2.90625 4.898438 -2.488281 4.921875 -1.65625 C 4.921875 -1.164062 4.851562 -0.695312 4.71875 -0.25 C 5.6875 -0.4375 6.671875 -1.585938 7.671875 -3.703125 C 7.722656 -3.816406 7.789062 -3.878906 7.875 -3.890625 C 7.957031 -3.929688 8 -3.890625 8 -3.765625 C 8 -3.628906 7.832031 -3.257812 7.5 -2.65625 C 7.164062 -2.050781 6.851562 -1.550781 6.5625 -1.15625 C 6.019531 -0.382812 5.363281 0.078125 4.59375 0.234375 C 4.09375 1.609375 3.351562 2.785156 2.375 3.765625 C 1.394531 4.742188 0.222656 5.429688 -1.140625 5.828125 C -1.460938 5.921875 -1.757812 5.96875 -2.03125 5.96875 Z M -2.921875 4.0625 C -3.003906 4.300781 -3.046875 4.550781 -3.046875 4.8125 C -3.046875 5.070312 -2.945312 5.257812 -2.75 5.375 C -2.5625 5.488281 -2.382812 5.546875 -2.21875 5.546875 C -1.601562 5.546875 -0.925781 5.3125 -0.1875 4.84375 C 0.550781 4.375 1.226562 3.78125 1.84375 3.0625 C 2.457031 2.34375 2.925781 1.550781 3.25 0.6875 C 2.976562 0.78125 2.550781 0.910156 1.96875 1.078125 C 1.394531 1.242188 0.941406 1.378906 0.609375 1.484375 C -0.285156 1.765625 -1 2.0625 -1.53125 2.375 C -2.21875 2.769531 -2.679688 3.332031 -2.921875 4.0625 Z M -2.921875 4.0625 "/></g></g></g><g fill="#000000" fill-opacity="1"><g transform="translate(100.634184, 22.709608)"><g/></g></g></svg>